<mxfile host="app.diagrams.net" modified="2024-06-22T07:22:45.035Z" agent="Mozilla/5.0 (Windows NT 10.0; Win64; x64) AppleWebKit/537.36 (KHTML, like Gecko) Chrome/126.0.0.0 Safari/537.36" etag="ewP_cP2akljy32xozDkg" version="24.3.1" type="github">
  <diagram name="Page-1" id="P5cMrg3SY-k-H9J5hxwQ">
    <mxGraphModel dx="1687" dy="1968" grid="1" gridSize="10" guides="1" tooltips="1" connect="1" arrows="1" fold="1" page="1" pageScale="1" pageWidth="850" pageHeight="1100" math="0" shadow="0">
      <root>
        <mxCell id="0" />
        <mxCell id="1" parent="0" />
        <mxCell id="UZG2-rPkx0b6M6HljdRb-51" style="edgeStyle=orthogonalEdgeStyle;rounded=0;orthogonalLoop=1;jettySize=auto;html=1;exitX=0.5;exitY=0.5;exitDx=0;exitDy=0;exitPerimeter=0;" edge="1" parent="1">
          <mxGeometry relative="1" as="geometry">
            <mxPoint x="680" y="-10.352941176470495" as="targetPoint" />
            <mxPoint x="680" y="-10" as="sourcePoint" />
          </mxGeometry>
        </mxCell>
        <mxCell id="UZG2-rPkx0b6M6HljdRb-52" value="" style="shape=actor;whiteSpace=wrap;html=1;container=0;" vertex="1" parent="1">
          <mxGeometry x="660" y="-30" width="40" height="60" as="geometry" />
        </mxCell>
        <mxCell id="UZG2-rPkx0b6M6HljdRb-53" value="" style="endArrow=classic;html=1;rounded=0;exitX=0.5;exitY=1;exitDx=0;exitDy=0;dashed=1;orthogonalLoop=0;flowAnimation=1;" edge="1" parent="1" target="UZG2-rPkx0b6M6HljdRb-17">
          <mxGeometry width="50" height="50" relative="1" as="geometry">
            <mxPoint x="679.71" y="30" as="sourcePoint" />
            <mxPoint x="679.71" y="170" as="targetPoint" />
          </mxGeometry>
        </mxCell>
        <mxCell id="UZG2-rPkx0b6M6HljdRb-1" value="Region" style="shape=mxgraph.ibm.box;prType=region;fontStyle=0;verticalAlign=top;align=left;spacingLeft=32;spacingTop=4;fillColor=none;rounded=0;whiteSpace=wrap;html=1;strokeColor=#919191;strokeWidth=2;dashed=1;container=0;spacing=-4;collapsible=0;expand=0;recursiveResize=0;" vertex="1" parent="1">
          <mxGeometry x="200" y="130" width="960" height="640" as="geometry" />
        </mxCell>
        <mxCell id="UZG2-rPkx0b6M6HljdRb-3" value="VPC" style="points=[[0,0],[0.25,0],[0.5,0],[0.75,0],[1,0],[1,0.25],[1,0.5],[1,0.75],[1,1],[0.75,1],[0.5,1],[0.25,1],[0,1],[0,0.75],[0,0.5],[0,0.25]];outlineConnect=0;gradientColor=none;html=1;whiteSpace=wrap;fontSize=12;fontStyle=0;container=0;pointerEvents=0;collapsible=0;recursiveResize=0;shape=mxgraph.aws4.group;grIcon=mxgraph.aws4.group_vpc2;strokeColor=#8C4FFF;fillColor=none;verticalAlign=top;align=left;spacingLeft=30;fontColor=#AAB7B8;dashed=0;" vertex="1" parent="1">
          <mxGeometry x="280" y="210" width="800" height="480" as="geometry" />
        </mxCell>
        <mxCell id="UZG2-rPkx0b6M6HljdRb-5" value="Availability Zone" style="fillColor=none;strokeColor=#147EBA;dashed=1;verticalAlign=top;fontStyle=0;fontColor=#147EBA;whiteSpace=wrap;html=1;container=0;" vertex="1" parent="1">
          <mxGeometry x="740" y="170" width="260" height="560" as="geometry" />
        </mxCell>
        <mxCell id="UZG2-rPkx0b6M6HljdRb-8" value="Public subnet" style="points=[[0,0],[0.25,0],[0.5,0],[0.75,0],[1,0],[1,0.25],[1,0.5],[1,0.75],[1,1],[0.75,1],[0.5,1],[0.25,1],[0,1],[0,0.75],[0,0.5],[0,0.25]];outlineConnect=0;gradientColor=none;html=1;whiteSpace=wrap;fontSize=12;fontStyle=0;container=0;pointerEvents=0;collapsible=0;recursiveResize=0;shape=mxgraph.aws4.group;grIcon=mxgraph.aws4.group_security_group;grStroke=0;strokeColor=#7AA116;fillColor=#F2F6E8;verticalAlign=top;align=left;spacingLeft=30;fontColor=#248814;dashed=0;" vertex="1" parent="1">
          <mxGeometry x="400" y="250" width="180" height="180" as="geometry" />
        </mxCell>
        <mxCell id="UZG2-rPkx0b6M6HljdRb-9" value="Public subnet" style="points=[[0,0],[0.25,0],[0.5,0],[0.75,0],[1,0],[1,0.25],[1,0.5],[1,0.75],[1,1],[0.75,1],[0.5,1],[0.25,1],[0,1],[0,0.75],[0,0.5],[0,0.25]];outlineConnect=0;gradientColor=none;html=1;whiteSpace=wrap;fontSize=12;fontStyle=0;container=0;pointerEvents=0;collapsible=0;recursiveResize=0;shape=mxgraph.aws4.group;grIcon=mxgraph.aws4.group_security_group;grStroke=0;strokeColor=#7AA116;fillColor=#F2F6E8;verticalAlign=top;align=left;spacingLeft=30;fontColor=#248814;dashed=0;" vertex="1" parent="1">
          <mxGeometry x="780" y="250" width="180" height="180" as="geometry" />
        </mxCell>
        <mxCell id="UZG2-rPkx0b6M6HljdRb-10" value="Private subnet" style="points=[[0,0],[0.25,0],[0.5,0],[0.75,0],[1,0],[1,0.25],[1,0.5],[1,0.75],[1,1],[0.75,1],[0.5,1],[0.25,1],[0,1],[0,0.75],[0,0.5],[0,0.25]];outlineConnect=0;gradientColor=none;html=1;whiteSpace=wrap;fontSize=12;fontStyle=0;container=0;pointerEvents=0;collapsible=0;recursiveResize=0;shape=mxgraph.aws4.group;grIcon=mxgraph.aws4.group_security_group;grStroke=0;strokeColor=#00A4A6;fillColor=#E6F6F7;verticalAlign=top;align=left;spacingLeft=30;fontColor=#147EBA;dashed=0;" vertex="1" parent="1">
          <mxGeometry x="400" y="470" width="180" height="180" as="geometry" />
        </mxCell>
        <mxCell id="UZG2-rPkx0b6M6HljdRb-11" value="Private subnet" style="points=[[0,0],[0.25,0],[0.5,0],[0.75,0],[1,0],[1,0.25],[1,0.5],[1,0.75],[1,1],[0.75,1],[0.5,1],[0.25,1],[0,1],[0,0.75],[0,0.5],[0,0.25]];outlineConnect=0;gradientColor=none;html=1;whiteSpace=wrap;fontSize=12;fontStyle=0;container=0;pointerEvents=0;collapsible=0;recursiveResize=0;shape=mxgraph.aws4.group;grIcon=mxgraph.aws4.group_security_group;grStroke=0;strokeColor=#00A4A6;fillColor=#E6F6F7;verticalAlign=top;align=left;spacingLeft=30;fontColor=#147EBA;dashed=0;" vertex="1" parent="1">
          <mxGeometry x="780" y="470" width="180" height="180" as="geometry" />
        </mxCell>
        <mxCell id="UZG2-rPkx0b6M6HljdRb-13" value="Auto Scaling group" style="points=[[0,0],[0.25,0],[0.5,0],[0.75,0],[1,0],[1,0.25],[1,0.5],[1,0.75],[1,1],[0.75,1],[0.5,1],[0.25,1],[0,1],[0,0.75],[0,0.5],[0,0.25]];outlineConnect=0;gradientColor=none;html=1;whiteSpace=wrap;fontSize=12;fontStyle=0;container=0;pointerEvents=0;collapsible=0;recursiveResize=0;shape=mxgraph.aws4.groupCenter;grIcon=mxgraph.aws4.group_auto_scaling_group;grStroke=1;strokeColor=#D86613;fillColor=none;verticalAlign=top;align=center;fontColor=#D86613;dashed=1;spacingTop=25;" vertex="1" parent="1">
          <mxGeometry x="380" y="450" width="600" height="220" as="geometry" />
        </mxCell>
        <mxCell id="UZG2-rPkx0b6M6HljdRb-22" value="" style="sketch=0;outlineConnect=0;fontColor=#232F3E;gradientColor=none;fillColor=#8C4FFF;strokeColor=none;dashed=0;verticalLabelPosition=bottom;verticalAlign=top;align=center;html=1;fontSize=12;fontStyle=0;aspect=fixed;pointerEvents=1;shape=mxgraph.aws4.nat_gateway;container=0;" vertex="1" parent="1">
          <mxGeometry x="410" y="300" width="50" height="50" as="geometry" />
        </mxCell>
        <mxCell id="UZG2-rPkx0b6M6HljdRb-17" value="Internet&#xa;gateway" style="sketch=0;outlineConnect=0;fontColor=#232F3E;gradientColor=none;strokeColor=#232F3E;fillColor=#ffffff;dashed=0;verticalLabelPosition=bottom;verticalAlign=top;align=center;html=1;fontSize=12;fontStyle=0;aspect=fixed;shape=mxgraph.aws4.resourceIcon;resIcon=mxgraph.aws4.internet_gateway;container=0;" vertex="1" parent="1">
          <mxGeometry x="650" y="180" width="60" height="60" as="geometry" />
        </mxCell>
        <mxCell id="UZG2-rPkx0b6M6HljdRb-4" value="Availability Zone" style="fillColor=none;strokeColor=#147EBA;dashed=1;verticalAlign=top;fontStyle=0;fontColor=#147EBA;whiteSpace=wrap;html=1;container=0;" vertex="1" parent="1">
          <mxGeometry x="360" y="160" width="260" height="560" as="geometry" />
        </mxCell>
        <mxCell id="UZG2-rPkx0b6M6HljdRb-54" value="" style="endArrow=classic;html=1;rounded=0;entryX=0.5;entryY=0;entryDx=0;entryDy=0;entryPerimeter=0;dashed=1;orthogonalLoop=0;flowAnimation=1;" edge="1" parent="1" target="UZG2-rPkx0b6M6HljdRb-41">
          <mxGeometry width="50" height="50" relative="1" as="geometry">
            <mxPoint x="680" y="240" as="sourcePoint" />
            <mxPoint x="690" y="310" as="targetPoint" />
            <Array as="points">
              <mxPoint x="680" y="280" />
              <mxPoint x="810" y="280" />
            </Array>
          </mxGeometry>
        </mxCell>
        <mxCell id="UZG2-rPkx0b6M6HljdRb-44" value="&lt;font style=&quot;font-size: 13px;&quot;&gt;NAT&lt;/font&gt;" style="text;html=1;align=center;verticalAlign=middle;whiteSpace=wrap;rounded=0;container=0;" vertex="1" parent="1">
          <mxGeometry x="400" y="350" width="60" height="30" as="geometry" />
        </mxCell>
        <mxCell id="UZG2-rPkx0b6M6HljdRb-15" value="" style="verticalLabelPosition=bottom;html=1;verticalAlign=top;strokeWidth=1;align=center;outlineConnect=0;dashed=0;outlineConnect=0;shape=mxgraph.aws3d.application_server;fillColor=#ECECEC;strokeColor=#5E5E5E;aspect=fixed;container=0;" vertex="1" parent="1">
          <mxGeometry x="450" y="360" width="59.51" height="60" as="geometry" />
        </mxCell>
        <mxCell id="UZG2-rPkx0b6M6HljdRb-32" value="&lt;font style=&quot;font-size: 14px;&quot;&gt;Bastion-host&lt;/font&gt;" style="text;html=1;align=center;verticalAlign=middle;whiteSpace=wrap;rounded=0;container=0;" vertex="1" parent="1">
          <mxGeometry x="490" y="400" width="80" height="30" as="geometry" />
        </mxCell>
        <mxCell id="UZG2-rPkx0b6M6HljdRb-45" value="&lt;font style=&quot;font-size: 13px;&quot;&gt;NAT&lt;/font&gt;" style="text;html=1;align=center;verticalAlign=middle;whiteSpace=wrap;rounded=0;container=0;" vertex="1" parent="1">
          <mxGeometry x="899.51" y="320" width="60" height="30" as="geometry" />
        </mxCell>
        <mxCell id="UZG2-rPkx0b6M6HljdRb-46" value="" style="sketch=0;outlineConnect=0;fontColor=#232F3E;gradientColor=none;fillColor=#8C4FFF;strokeColor=none;dashed=0;verticalLabelPosition=bottom;verticalAlign=top;align=center;html=1;fontSize=12;fontStyle=0;aspect=fixed;pointerEvents=1;shape=mxgraph.aws4.nat_gateway;container=0;" vertex="1" parent="1">
          <mxGeometry x="909.51" y="270" width="50" height="50" as="geometry" />
        </mxCell>
        <mxCell id="UZG2-rPkx0b6M6HljdRb-14" value="Security group" style="fillColor=none;strokeColor=#DD3522;verticalAlign=top;fontStyle=0;fontColor=#DD3522;whiteSpace=wrap;html=1;container=0;" vertex="1" parent="1">
          <mxGeometry x="420" y="510" width="530" height="130" as="geometry" />
        </mxCell>
        <mxCell id="UZG2-rPkx0b6M6HljdRb-24" value="" style="sketch=0;points=[[0,0,0],[0.25,0,0],[0.5,0,0],[0.75,0,0],[1,0,0],[0,1,0],[0.25,1,0],[0.5,1,0],[0.75,1,0],[1,1,0],[0,0.25,0],[0,0.5,0],[0,0.75,0],[1,0.25,0],[1,0.5,0],[1,0.75,0]];outlineConnect=0;fontColor=#232F3E;fillColor=#ED7100;strokeColor=#ffffff;dashed=0;verticalLabelPosition=bottom;verticalAlign=top;align=center;html=1;fontSize=12;fontStyle=0;aspect=fixed;shape=mxgraph.aws4.resourceIcon;resIcon=mxgraph.aws4.ec2;container=0;" vertex="1" parent="1">
          <mxGeometry x="466" y="546" width="64" height="64" as="geometry" />
        </mxCell>
        <mxCell id="UZG2-rPkx0b6M6HljdRb-27" value="&lt;font style=&quot;font-size: 17px;&quot;&gt;Server&lt;/font&gt;" style="text;html=1;align=center;verticalAlign=middle;whiteSpace=wrap;rounded=0;container=0;" vertex="1" parent="1">
          <mxGeometry x="470" y="610" width="60" height="30" as="geometry" />
        </mxCell>
        <mxCell id="UZG2-rPkx0b6M6HljdRb-30" value="" style="sketch=0;points=[[0,0,0],[0.25,0,0],[0.5,0,0],[0.75,0,0],[1,0,0],[0,1,0],[0.25,1,0],[0.5,1,0],[0.75,1,0],[1,1,0],[0,0.25,0],[0,0.5,0],[0,0.75,0],[1,0.25,0],[1,0.5,0],[1,0.75,0]];outlineConnect=0;fontColor=#232F3E;fillColor=#ED7100;strokeColor=#ffffff;dashed=0;verticalLabelPosition=bottom;verticalAlign=top;align=center;html=1;fontSize=12;fontStyle=0;aspect=fixed;shape=mxgraph.aws4.resourceIcon;resIcon=mxgraph.aws4.ec2;container=0;" vertex="1" parent="1">
          <mxGeometry x="840" y="546" width="64" height="64" as="geometry" />
        </mxCell>
        <mxCell id="UZG2-rPkx0b6M6HljdRb-31" value="&lt;font style=&quot;font-size: 17px;&quot;&gt;Server&lt;/font&gt;" style="text;html=1;align=center;verticalAlign=middle;whiteSpace=wrap;rounded=0;container=0;" vertex="1" parent="1">
          <mxGeometry x="844" y="610" width="60" height="30" as="geometry" />
        </mxCell>
        <mxCell id="UZG2-rPkx0b6M6HljdRb-36" value="" style="verticalLabelPosition=bottom;html=1;verticalAlign=top;strokeWidth=1;align=center;outlineConnect=0;dashed=0;outlineConnect=0;shape=mxgraph.aws3d.application_server;fillColor=#ECECEC;strokeColor=#5E5E5E;aspect=fixed;container=0;" vertex="1" parent="1">
          <mxGeometry x="840" y="350" width="59.51" height="60" as="geometry" />
        </mxCell>
        <mxCell id="UZG2-rPkx0b6M6HljdRb-37" value="&lt;font style=&quot;font-size: 14px;&quot;&gt;Bastion-host&lt;/font&gt;" style="text;html=1;align=center;verticalAlign=middle;whiteSpace=wrap;rounded=0;container=0;" vertex="1" parent="1">
          <mxGeometry x="869.76" y="400" width="80" height="30" as="geometry" />
        </mxCell>
        <mxCell id="UZG2-rPkx0b6M6HljdRb-55" value="" style="endArrow=classic;html=1;rounded=0;entryX=0.692;entryY=0.268;entryDx=0;entryDy=0;entryPerimeter=0;dashed=1;orthogonalLoop=0;flowAnimation=1;" edge="1" parent="1" target="UZG2-rPkx0b6M6HljdRb-4">
          <mxGeometry width="50" height="50" relative="1" as="geometry">
            <mxPoint x="680" y="240" as="sourcePoint" />
            <mxPoint x="570" y="320" as="targetPoint" />
            <Array as="points">
              <mxPoint x="680" y="280" />
              <mxPoint x="540" y="280" />
              <mxPoint x="540" y="290" />
            </Array>
          </mxGeometry>
        </mxCell>
        <mxCell id="UZG2-rPkx0b6M6HljdRb-56" value="" style="group" vertex="1" connectable="0" parent="1">
          <mxGeometry x="775" y="310" width="60" height="70" as="geometry" />
        </mxCell>
        <mxCell id="UZG2-rPkx0b6M6HljdRb-41" value="" style="outlineConnect=0;dashed=0;verticalLabelPosition=bottom;verticalAlign=top;align=center;html=1;shape=mxgraph.aws3.application_load_balancer;fillColor=#F58534;gradientColor=none;container=0;" vertex="1" parent="UZG2-rPkx0b6M6HljdRb-56">
          <mxGeometry x="10" width="50" height="50" as="geometry" />
        </mxCell>
        <mxCell id="UZG2-rPkx0b6M6HljdRb-42" value="&lt;font style=&quot;font-size: 13px;&quot;&gt;ALB&lt;/font&gt;" style="text;html=1;align=center;verticalAlign=middle;whiteSpace=wrap;rounded=0;container=0;" vertex="1" parent="UZG2-rPkx0b6M6HljdRb-56">
          <mxGeometry y="40" width="60" height="30" as="geometry" />
        </mxCell>
        <mxCell id="UZG2-rPkx0b6M6HljdRb-57" value="" style="group" vertex="1" connectable="0" parent="1">
          <mxGeometry x="519.75" y="310" width="60" height="70" as="geometry" />
        </mxCell>
        <mxCell id="UZG2-rPkx0b6M6HljdRb-20" value="" style="outlineConnect=0;dashed=0;verticalLabelPosition=bottom;verticalAlign=top;align=center;html=1;shape=mxgraph.aws3.application_load_balancer;fillColor=#F58534;gradientColor=none;container=0;" vertex="1" parent="UZG2-rPkx0b6M6HljdRb-57">
          <mxGeometry x="0.25" width="50" height="50" as="geometry" />
        </mxCell>
        <mxCell id="UZG2-rPkx0b6M6HljdRb-38" value="&lt;font style=&quot;font-size: 13px;&quot;&gt;ALB&lt;/font&gt;" style="text;html=1;align=center;verticalAlign=middle;whiteSpace=wrap;rounded=0;container=0;" vertex="1" parent="UZG2-rPkx0b6M6HljdRb-57">
          <mxGeometry y="40" width="60" height="30" as="geometry" />
        </mxCell>
        <mxCell id="UZG2-rPkx0b6M6HljdRb-58" value="" style="endArrow=classic;html=1;rounded=0;entryX=0.5;entryY=0.5;entryDx=0;entryDy=0;entryPerimeter=0;exitX=1;exitY=0.5;exitDx=0;exitDy=0;exitPerimeter=0;dashed=1;orthogonalLoop=0;flowAnimation=1;" edge="1" parent="1" source="UZG2-rPkx0b6M6HljdRb-20" target="UZG2-rPkx0b6M6HljdRb-1">
          <mxGeometry width="50" height="50" relative="1" as="geometry">
            <mxPoint x="680" y="340" as="sourcePoint" />
            <mxPoint x="680" y="340" as="targetPoint" />
            <Array as="points">
              <mxPoint x="680" y="335" />
            </Array>
          </mxGeometry>
        </mxCell>
        <mxCell id="UZG2-rPkx0b6M6HljdRb-59" value="" style="endArrow=classic;html=1;rounded=0;entryX=0.5;entryY=0.5;entryDx=0;entryDy=0;entryPerimeter=0;dashed=1;orthogonalLoop=0;flowAnimation=1;" edge="1" parent="1" source="UZG2-rPkx0b6M6HljdRb-41">
          <mxGeometry width="50" height="50" relative="1" as="geometry">
            <mxPoint x="770" y="335" as="sourcePoint" />
            <mxPoint x="680" y="450" as="targetPoint" />
            <Array as="points">
              <mxPoint x="680" y="335" />
            </Array>
          </mxGeometry>
        </mxCell>
        <mxCell id="UZG2-rPkx0b6M6HljdRb-64" value="" style="endArrow=classic;html=1;rounded=0;entryX=0.5;entryY=0;entryDx=0;entryDy=0;entryPerimeter=0;dashed=1;orthogonalLoop=0;flowAnimation=1;" edge="1" parent="1" target="UZG2-rPkx0b6M6HljdRb-30">
          <mxGeometry width="50" height="50" relative="1" as="geometry">
            <mxPoint x="680" y="470" as="sourcePoint" />
            <mxPoint x="810" y="540" as="targetPoint" />
            <Array as="points">
              <mxPoint x="680" y="520" />
              <mxPoint x="750" y="520" />
              <mxPoint x="872" y="520" />
            </Array>
          </mxGeometry>
        </mxCell>
        <mxCell id="UZG2-rPkx0b6M6HljdRb-65" value="" style="endArrow=classic;html=1;rounded=0;entryX=0.5;entryY=0;entryDx=0;entryDy=0;entryPerimeter=0;dashed=1;orthogonalLoop=0;flowAnimation=1;" edge="1" parent="1" target="UZG2-rPkx0b6M6HljdRb-24">
          <mxGeometry width="50" height="50" relative="1" as="geometry">
            <mxPoint x="680" y="470" as="sourcePoint" />
            <mxPoint x="540" y="540" as="targetPoint" />
            <Array as="points">
              <mxPoint x="680" y="520" />
              <mxPoint x="610" y="520" />
              <mxPoint x="498" y="520" />
            </Array>
          </mxGeometry>
        </mxCell>
      </root>
    </mxGraphModel>
  </diagram>
</mxfile>
